<?xml version="1.0" encoding="UTF-8"?>
<!DOCTYPE svg PUBLIC "-//W3C//DTD SVG 1.1//EN" "http://www.w3.org/Graphics/SVG/1.1/DTD/svg11.dtd">
<!-- Creator: CorelDRAW 2021 (64-Bit) -->
<svg xmlns="http://www.w3.org/2000/svg" xml:space="preserve" width="48mm" height="13mm" version="1.1" style="shape-rendering:geometricPrecision; text-rendering:geometricPrecision; image-rendering:optimizeQuality; fill-rule:evenodd; clip-rule:evenodd"
viewBox="0 0 4800 1300"
 xmlns:xlink="http://www.w3.org/1999/xlink"
 xmlns:xodm="http://www.corel.com/coreldraw/odm/2003">
 <defs>
  <style type="text/css">
   <![CDATA[
    .fil0 {fill:#465780}
    .fil1 {fill:#00ADB5;fill-rule:nonzero}
    .fil2 {fill:white;fill-rule:nonzero}
   ]]>
  </style>
 </defs>
 <g id="Layer_x0020_1">
  <metadata id="CorelCorpID_0Corel-Layer"/>
  <rect class="fil0" x="61.24" y="72.78" width="1165.26" height="1167.51" rx="682.91" ry="682.91"/>
  <path class="fil1" d="M1539.98 768.28l0 -148.16c33.87,0 50.8,-12.85 50.8,-38.67 0,-23.56 -12.98,-35.42 -39.08,-35.42 -26.39,0 -39.66,16.23 -39.66,48.54l0 368.87 -167.64 0 0 -351.51c0,-36.41 3.67,-66.18 11.01,-89.46 7.2,-23.29 19.76,-44.88 37.39,-65.06 19.9,-22.29 44.74,-39.93 74.51,-52.77 29.78,-12.98 60.54,-19.48 92.15,-19.48 57.43,0 105.69,19.34 144.64,57.86 39.09,38.52 58.56,86.36 58.56,143.37 0,55.46 -17.5,100.33 -52.5,134.76 -31.89,31.75 -80.15,47.56 -144.49,47.56l-25.69 -0.43zm509.7 40.5l0 160.02c-12.7,2.12 -24.27,3.11 -34.71,3.11 -61.95,0 -113.46,-20.46 -154.8,-61.25 -41.35,-40.78 -61.95,-91.86 -61.95,-153.38 0,-59.84 20.88,-110.49 62.65,-152.12 41.63,-41.63 92.43,-62.51 152.26,-62.51 66.61,0 119.1,19.47 157.62,58.56 38.39,39.08 57.58,92.42 57.58,160.02l0 202.21 -154.94 0 0 -191.07c0,-21.73 -5.22,-39.08 -15.81,-52.07 -10.44,-12.84 -24.69,-19.33 -42.47,-19.33 -16.09,0 -30.06,5.93 -41.77,17.78 -11.71,11.86 -17.64,25.83 -17.64,42.05 0,17.08 5.36,31.19 15.95,42.2 10.72,11 24.27,16.51 40.64,16.51 13.4,0 25.96,-3.53 37.39,-10.73zm423.19 -410.07l0 564.73 -154.94 0 0 -564.73 154.94 0zm236.79 152.4l-75.64 150.14 112.33 262.19 -171.03 0 -96.8 -269.24 70.27 -143.09 160.87 0z"/>
  <g id="_1913978410256">
   <path class="fil1" d="M712.53 362.54c-17.47,32.46 -49.39,56.54 -84.69,70.32 -35.48,14.23 -75.18,16.46 -112.24,14.87 -37.23,-1.79 -73.47,-6.86 -108.25,-7.56 -34.52,-0.88 -68.2,2.35 -90.98,18.28 -11.34,7.87 -20.44,18.32 -27.24,31.42 -6.84,12.89 -12.39,28.3 -14.63,42.34 -2.38,14.36 -1.78,28.76 1.16,43.34 3.1,14.58 8.74,29.28 15.99,43.91 29.35,59.1 80.48,114.22 113.88,186.58 8.21,18.16 15.04,37.57 19.48,57.97l2.84 15.45c0.74,5.22 1.22,10.47 1.81,15.72 0.79,9.72 1.32,18.78 1.77,28.19 1.65,37.28 1.39,74.5 1.22,110.3 -0.02,17.77 0.05,35.49 1.82,50.82 0.84,7.57 2.31,14.59 3.97,19.16 0.88,2.13 1.67,3.88 2.26,4.68 0.68,0.75 0.75,1.33 1.48,1.66 0.66,0.43 1.75,1.07 3.9,1.44 1.04,0.73 7.78,0.16 1.82,1.06 -2.19,0.78 -0.84,0.85 0.99,-0.83 1.84,-1.47 4.13,-3.69 6.53,-6.37 9.72,-10.87 19.38,-25.84 28.47,-40.71 18.36,-30.16 35.28,-62.53 53.83,-94.12 18.58,-31.62 37.64,-63.37 59.86,-93.52 11.29,-14.96 23.35,-29.52 37,-42.96 13.69,-13.26 29.03,-26 47.96,-33.37 9.4,-3.64 19.72,-5.73 29.97,-5.2 10.23,0.48 20.1,3.59 28.55,8.43 16.86,9.98 28.83,24.67 38.57,40.02 -12.6,-13.06 -26.63,-25.28 -42.76,-31.15 -15.98,-6.3 -32.79,-4.07 -46.76,4.19 -14.04,8.24 -26.2,20.47 -36.94,33.95 -10.75,13.56 -20.26,28.38 -29.1,43.7 -17.94,30.48 -33.57,62.81 -48.71,95.57 -15.21,32.84 -30.36,65.77 -47.36,99.17 -8.81,16.72 -17.5,33.34 -30.77,50.73 -3.34,4.36 -7.29,8.77 -12.26,13.31 -4.93,4.36 -11.36,9.58 -22.27,12.94 -2.46,0.86 -5.91,1.33 -9.08,1.62l-2.41 0.16 -1.29 -0.01 -2.42 -0.05c-3.19,-0.01 -6.5,-0.23 -10.05,-0.76 -6.85,-0.84 -14.56,-2.98 -21.95,-6.73 -7.52,-3.61 -14.21,-9.43 -19.46,-15.48 -5.27,-6.19 -8.68,-12.59 -11.52,-18.75 -5.29,-12.26 -7.33,-23.25 -9.03,-33.65 -3.07,-20.74 -3.59,-39.45 -4.29,-58.03 -1.05,-36.91 -1.25,-72.43 -3.67,-107.78 -0.57,-8.74 -1.1,-17.84 -1.89,-26.22l-1.38 -11.36 -2.16 -11.35c-3.39,-15.14 -8.78,-30.2 -15.59,-45.13 -13.44,-30.03 -32.53,-59.24 -52.45,-89.36 -19.67,-30.33 -41.21,-61.32 -57.87,-97.81 -8.24,-18.22 -15.21,-37.93 -18.92,-59.13 -3.69,-21.16 -3.35,-43.74 1.31,-65.06 4.87,-21.58 12.58,-40.57 23.97,-59.1 11.29,-18.44 27.72,-35.3 47.3,-46.67 19.6,-11.32 41.21,-16.98 61.54,-18.85 20.47,-2.09 40.08,-1.05 58.99,1.24 37.79,4.56 73.21,12.87 108.35,18.24 34.98,5.95 69.69,7.58 103.78,-0.42 16.95,-3.9 33.47,-10.23 48.8,-19.1 15.41,-8.71 29.74,-20.01 41.22,-34.19z"/>
   <path class="fil2" d="M707.9 293.12c-34.72,25.8 -72.08,48.24 -112.31,66.05 -20.12,8.9 -41.19,16.23 -63.68,20.55 -22.27,3.97 -47.22,5.69 -72,-5.01 -6.18,-2.77 -11.83,-6.28 -17,-10.34 -5.28,-4.14 -10.44,-9.18 -14.67,-15.59 -4.25,-6.35 -7.39,-14.21 -8.4,-22.39 -1.08,-8.18 -0.01,-16.28 2.11,-23.38 4.35,-14.31 12.06,-25.24 20.11,-34.74 8.14,-9.53 17.06,-17.51 26.23,-24.89 18.39,-14.71 38.17,-26.35 58.44,-36.54 20.25,-10.2 41.08,-18.87 62.26,-26.41 42.37,-15.04 86.3,-25.46 131.15,-30.81 11.2,-1.36 22.47,-2.39 33.78,-3.13 5.64,-0.39 11.31,-0.64 16.99,-0.82l8.52 -0.19 9.28 0.08c24.81,0.67 50.14,5.69 73.65,15.52 23.58,9.71 44.93,24.3 62.97,41.49 18.11,17.2 33.01,36.97 45.11,57.8 24.06,41.87 37.51,87.49 44.55,133.13 13.13,91.57 1.12,184.43 -31.03,269.67 -4.02,10.65 -8.48,21.15 -13.16,31.54 -4.99,10.83 -9.04,19.24 -13.27,28.92 -8.14,18.9 -15.69,38.13 -22.28,57.76 -13.1,39.3 -23.27,79.87 -31.07,121.25 -7.97,41.4 -12.72,83.58 -18.66,126.53 -3.08,21.51 -6.01,43.19 -11.44,65.7 -2.91,11.28 -6.08,22.8 -12.83,34.92 -3.44,6.01 -8.06,12.34 -14.88,17.57 -6.84,5.2 -16.04,8.39 -24.09,8.42 -15.17,0.39 -28.78,-5.22 -39.33,-12.81 -10.56,-7.66 -18.49,-16.85 -25.34,-26.18 -13.48,-18.84 -23.24,-38.57 -32.31,-58.35 -9.09,-19.72 -17.53,-39.45 -27.31,-58.38 -4.81,-9.5 -9.99,-18.8 -16.13,-27.45 -6.18,-8.56 -13.24,-16.71 -22.55,-22.3 10.14,3.92 18.88,11.17 26.43,19.07 7.62,7.95 14.31,16.71 20.62,25.62 12.46,17.98 23.37,36.78 34.72,54.96 11.41,18.08 22.68,36.2 36.05,51.11 6.67,7.39 13.88,13.89 21.35,18.13 7.35,4.21 15.18,5.87 21.62,4.91 2.74,-0.44 4.02,-1.41 5.67,-2.78 1.57,-1.58 3.37,-4.16 4.96,-7.66 3.25,-7.02 5.4,-16.62 6.99,-26.34 3.12,-19.75 4.34,-41.03 5.63,-62.34 2.32,-42.78 5.42,-86.48 10.96,-130.18 5.46,-43.71 13.83,-87.54 26.49,-130.48 6.25,-21.48 13.46,-42.75 21.85,-63.63 4.08,-10.22 9.04,-21.36 12.77,-30.21 3.88,-9.38 7.59,-18.82 10.87,-28.43 13.34,-38.32 22.55,-78.18 26.64,-118.51 4.3,-40.26 3.97,-81.03 -2.02,-120.5 -5.75,-39.4 -17.3,-77.81 -35.96,-110.91 -18.33,-33.25 -44.73,-60.27 -76.88,-74.66 -16.05,-7.28 -33.54,-11.4 -51.76,-12.47l-6.86 -0.28 -7.64 -0.05 -15.29 0.18c-10.21,0.23 -20.43,0.73 -30.65,1.54 -40.86,3.41 -81.75,10.66 -121.38,22.01 -39.44,11.44 -78.22,27.26 -111.14,48.89 -8.09,5.46 -15.78,11.35 -22.19,17.72 -6.46,6.3 -11.69,13.25 -14.17,19.45 -2.46,6.35 -2.43,10.73 0.33,16.29 2.69,5.38 9.81,11.85 16.58,15.88 14.36,8.42 34.61,10.26 54.62,8.54 20.21,-1.72 40.69,-6.67 60.96,-12.6 20.27,-6.06 40.28,-13.65 59.99,-22.03 19.81,-8.24 39.25,-17.49 58.43,-27.43z"/>
  </g>
  <path class="fil2" d="M3008.61 555.09l0 402.17 -167.64 0 0 -564.73 218.3 0c95.81,0 170.88,21.73 225.21,65.34 64.49,52.21 96.66,122.9 96.66,212.37 0,85.51 -27.51,155.22 -82.69,209.27 -55.03,54.04 -126.01,81.14 -212.8,81.14 -10.16,0 -26.81,-0.57 -49.95,-1.7l0 -165.94 26.81 0c97.79,0 146.76,-40.93 146.76,-122.63 0,-76.91 -48.12,-115.29 -144.22,-115.29l-56.44 0zm845.54 220.98l-234.39 0c-3.25,-11.85 -4.94,-22.58 -4.94,-32.45 0,-13.69 2.4,-27.24 7.06,-40.36l78.6 0c-5.51,-31.05 -22.72,-46.57 -51.65,-46.57 -19.33,0 -35,8.19 -47.13,24.7 -12.14,16.37 -18.21,37.53 -18.21,63.21 0,26.82 5.79,48.41 17.5,65.06 11.71,16.51 27.1,24.83 46.15,24.83 15.38,0 30.33,-7.76 44.59,-23.28l88.05 105.97c-41.06,32.32 -86.78,48.55 -137.02,48.55 -61.1,0 -112.61,-20.61 -154.23,-61.67 -41.63,-41.2 -62.52,-92 -62.52,-152.82 0,-60.4 21.03,-111.48 63.08,-153.11 42.19,-41.63 93.84,-62.51 155.08,-62.51 59.83,0 110.21,20.32 150.85,61.1 40.78,40.64 61.1,90.73 61.1,150.42 0,6.07 -0.7,15.67 -1.97,28.93zm431.38 181.19l-154.94 0 0 -232.83c0,-23.71 -9.6,-35.56 -28.93,-35.56 -19.05,0 -28.65,11.85 -28.65,35.56l0 232.83 -154.94 0 0 -230.01c0,-53.62 17.78,-98.92 53.34,-135.61 35.56,-36.83 79.03,-55.17 130.67,-55.17 58.85,0 106.12,21.3 141.68,64.06 27.8,33.3 41.77,79.73 41.77,139.14l0 217.59zm228.18 -564.73l0 158.33 69.43 0 0 163.41 -69.43 0c0,32.73 5.08,55.31 15.38,67.73 10.3,12.42 29.21,18.63 56.59,18.63l0 162.42c-8.05,0.14 -13.97,0.14 -17.78,0.14 -35,0 -68.02,-8.19 -98.92,-24.42 -31.05,-16.22 -55.88,-38.24 -74.65,-66.04 -23.71,-35.41 -35.56,-82.55 -35.56,-141.11l0 -339.09 154.94 0z"/>
 </g>
</svg>
