<?xml version="1.0" encoding="UTF-8"?>
<!DOCTYPE svg PUBLIC "-//W3C//DTD SVG 1.1//EN" "http://www.w3.org/Graphics/SVG/1.1/DTD/svg11.dtd">
<!-- Creator: CorelDRAW 2021 (64-Bit) -->
<svg xmlns="http://www.w3.org/2000/svg" xml:space="preserve" width="12mm" height="12mm" version="1.1" style="shape-rendering:geometricPrecision; text-rendering:geometricPrecision; image-rendering:optimizeQuality; fill-rule:evenodd; clip-rule:evenodd"
viewBox="0 0 1200 1200"
 xmlns:xlink="http://www.w3.org/1999/xlink"
 xmlns:xodm="http://www.corel.com/coreldraw/odm/2003">
 <defs>
  <style type="text/css">
   <![CDATA[
    .fil0 {fill:#393E46}
    .fil1 {fill:#00ADB5;fill-rule:nonzero}
    .fil2 {fill:white;fill-rule:nonzero}
   ]]>
  </style>
 </defs>
 <g id="Layer_x0020_1">
  <metadata id="CorelCorpID_0Corel-Layer"/>
  <rect class="fil0" x="16.24" y="17.38" width="1165.26" height="1167.51" rx="682.91" ry="682.91"/>
  <g id="_1913974476688">
   <path class="fil1" d="M667.53 307.14c-17.47,32.46 -49.39,56.54 -84.69,70.32 -35.48,14.23 -75.18,16.46 -112.24,14.87 -37.23,-1.79 -73.47,-6.86 -108.25,-7.56 -34.52,-0.88 -68.2,2.35 -90.98,18.28 -11.34,7.87 -20.44,18.32 -27.24,31.42 -6.84,12.89 -12.39,28.3 -14.63,42.34 -2.38,14.36 -1.78,28.76 1.16,43.34 3.1,14.58 8.74,29.28 15.99,43.91 29.35,59.1 80.48,114.22 113.88,186.58 8.21,18.16 15.04,37.57 19.48,57.97l2.84 15.45c0.74,5.22 1.22,10.47 1.81,15.72 0.79,9.72 1.32,18.78 1.77,28.19 1.65,37.28 1.39,74.5 1.22,110.3 -0.02,17.77 0.05,35.49 1.82,50.82 0.84,7.57 2.31,14.59 3.97,19.16 0.88,2.13 1.67,3.88 2.26,4.68 0.68,0.75 0.75,1.33 1.48,1.66 0.66,0.43 1.75,1.07 3.9,1.44 1.04,0.73 7.78,0.16 1.82,1.06 -2.19,0.78 -0.84,0.85 0.99,-0.83 1.84,-1.47 4.13,-3.69 6.53,-6.37 9.72,-10.87 19.38,-25.84 28.47,-40.71 18.36,-30.16 35.28,-62.53 53.83,-94.12 18.58,-31.62 37.64,-63.37 59.86,-93.52 11.29,-14.96 23.35,-29.52 37,-42.96 13.69,-13.26 29.03,-26 47.96,-33.37 9.4,-3.64 19.72,-5.73 29.97,-5.2 10.23,0.48 20.1,3.59 28.55,8.43 16.86,9.98 28.83,24.67 38.57,40.02 -12.6,-13.06 -26.63,-25.28 -42.76,-31.15 -15.98,-6.3 -32.79,-4.07 -46.76,4.19 -14.04,8.24 -26.2,20.47 -36.94,33.95 -10.75,13.56 -20.26,28.38 -29.1,43.7 -17.94,30.48 -33.57,62.81 -48.71,95.57 -15.21,32.84 -30.36,65.77 -47.36,99.17 -8.81,16.72 -17.5,33.34 -30.77,50.73 -3.34,4.36 -7.29,8.77 -12.26,13.31 -4.93,4.36 -11.36,9.58 -22.27,12.94 -2.46,0.86 -5.91,1.33 -9.08,1.62l-2.41 0.16 -1.29 -0.01 -2.42 -0.05c-3.19,-0.01 -6.5,-0.23 -10.05,-0.76 -6.85,-0.84 -14.56,-2.98 -21.95,-6.73 -7.52,-3.61 -14.21,-9.43 -19.46,-15.48 -5.27,-6.19 -8.68,-12.59 -11.52,-18.75 -5.29,-12.26 -7.33,-23.25 -9.03,-33.65 -3.07,-20.74 -3.59,-39.45 -4.29,-58.03 -1.05,-36.91 -1.25,-72.43 -3.67,-107.78 -0.57,-8.74 -1.1,-17.84 -1.89,-26.22l-1.38 -11.36 -2.16 -11.35c-3.39,-15.14 -8.78,-30.2 -15.59,-45.13 -13.44,-30.03 -32.53,-59.24 -52.45,-89.36 -19.67,-30.33 -41.21,-61.32 -57.87,-97.81 -8.24,-18.22 -15.21,-37.93 -18.92,-59.13 -3.69,-21.16 -3.35,-43.74 1.31,-65.06 4.87,-21.58 12.58,-40.57 23.97,-59.1 11.29,-18.44 27.72,-35.3 47.3,-46.67 19.6,-11.32 41.21,-16.98 61.54,-18.85 20.47,-2.09 40.08,-1.05 58.99,1.24 37.79,4.56 73.21,12.87 108.35,18.24 34.98,5.95 69.69,7.58 103.78,-0.42 16.95,-3.9 33.47,-10.23 48.8,-19.1 15.41,-8.71 29.74,-20.01 41.22,-34.19z"/>
   <path class="fil2" d="M662.9 237.72c-34.72,25.8 -72.08,48.24 -112.31,66.05 -20.12,8.9 -41.19,16.23 -63.68,20.55 -22.27,3.97 -47.22,5.69 -72,-5.01 -6.18,-2.77 -11.83,-6.28 -17,-10.34 -5.28,-4.14 -10.44,-9.18 -14.67,-15.59 -4.25,-6.35 -7.39,-14.21 -8.4,-22.39 -1.08,-8.18 -0.01,-16.28 2.11,-23.38 4.35,-14.31 12.06,-25.24 20.11,-34.74 8.14,-9.53 17.06,-17.51 26.23,-24.89 18.39,-14.71 38.17,-26.35 58.44,-36.54 20.25,-10.2 41.08,-18.87 62.26,-26.41 42.37,-15.04 86.3,-25.46 131.15,-30.81 11.2,-1.36 22.47,-2.39 33.78,-3.13 5.64,-0.39 11.31,-0.64 16.99,-0.82l8.52 -0.19 9.28 0.08c24.81,0.67 50.14,5.69 73.65,15.52 23.58,9.71 44.93,24.3 62.97,41.49 18.11,17.2 33.01,36.97 45.11,57.8 24.06,41.87 37.51,87.49 44.55,133.13 13.13,91.57 1.12,184.43 -31.03,269.67 -4.02,10.65 -8.48,21.15 -13.16,31.54 -4.99,10.83 -9.04,19.24 -13.27,28.92 -8.14,18.9 -15.69,38.13 -22.28,57.76 -13.1,39.3 -23.27,79.87 -31.07,121.25 -7.97,41.4 -12.72,83.58 -18.66,126.53 -3.08,21.51 -6.01,43.19 -11.44,65.7 -2.91,11.28 -6.08,22.8 -12.83,34.92 -3.44,6.01 -8.06,12.34 -14.88,17.57 -6.84,5.2 -16.04,8.39 -24.09,8.42 -15.17,0.39 -28.78,-5.22 -39.33,-12.81 -10.56,-7.66 -18.49,-16.85 -25.34,-26.18 -13.48,-18.84 -23.24,-38.57 -32.31,-58.35 -9.09,-19.72 -17.53,-39.45 -27.31,-58.38 -4.81,-9.5 -9.99,-18.8 -16.13,-27.45 -6.18,-8.56 -13.24,-16.71 -22.55,-22.3 10.14,3.92 18.88,11.17 26.43,19.07 7.62,7.95 14.31,16.71 20.62,25.62 12.46,17.98 23.37,36.78 34.72,54.96 11.41,18.08 22.68,36.2 36.05,51.11 6.67,7.39 13.88,13.89 21.35,18.13 7.35,4.21 15.18,5.87 21.62,4.91 2.74,-0.44 4.02,-1.41 5.67,-2.78 1.57,-1.58 3.37,-4.16 4.96,-7.66 3.25,-7.02 5.4,-16.62 6.99,-26.34 3.12,-19.75 4.34,-41.03 5.63,-62.34 2.32,-42.78 5.42,-86.48 10.96,-130.18 5.46,-43.71 13.83,-87.54 26.49,-130.48 6.25,-21.48 13.46,-42.75 21.85,-63.63 4.08,-10.22 9.04,-21.36 12.77,-30.21 3.88,-9.38 7.59,-18.82 10.87,-28.43 13.34,-38.32 22.55,-78.18 26.64,-118.51 4.3,-40.26 3.97,-81.03 -2.02,-120.5 -5.75,-39.4 -17.3,-77.81 -35.96,-110.91 -18.33,-33.25 -44.73,-60.27 -76.88,-74.66 -16.05,-7.28 -33.54,-11.4 -51.76,-12.47l-6.86 -0.28 -7.64 -0.05 -15.29 0.18c-10.21,0.23 -20.43,0.73 -30.65,1.54 -40.86,3.41 -81.75,10.66 -121.38,22.01 -39.44,11.44 -78.22,27.26 -111.14,48.89 -8.09,5.46 -15.78,11.35 -22.19,17.72 -6.46,6.3 -11.69,13.25 -14.17,19.45 -2.46,6.35 -2.43,10.73 0.33,16.29 2.69,5.38 9.81,11.85 16.58,15.88 14.36,8.42 34.61,10.26 54.62,8.54 20.21,-1.72 40.69,-6.67 60.96,-12.6 20.27,-6.06 40.28,-13.65 59.99,-22.03 19.81,-8.24 39.25,-17.49 58.43,-27.43z"/>
  </g>
 </g>
</svg>
