<?xml version="1.0" encoding="UTF-8"?>
<!DOCTYPE svg PUBLIC "-//W3C//DTD SVG 1.1//EN" "http://www.w3.org/Graphics/SVG/1.1/DTD/svg11.dtd">
<!-- Creator: CorelDRAW 2021 (64-Bit) -->
<svg xmlns="http://www.w3.org/2000/svg" xml:space="preserve" width="9mm" height="9mm" version="1.1" style="shape-rendering:geometricPrecision; text-rendering:geometricPrecision; image-rendering:optimizeQuality; fill-rule:evenodd; clip-rule:evenodd"
viewBox="0 0 900 900"
 xmlns:xlink="http://www.w3.org/1999/xlink"
 xmlns:xodm="http://www.corel.com/coreldraw/odm/2003">
 <defs>
  <style type="text/css">
   <![CDATA[
    .fil0 {fill:#393E46}
    .fil1 {fill:#00ADB5;fill-rule:nonzero}
    .fil2 {fill:white;fill-rule:nonzero}
   ]]>
  </style>
 </defs>
 <g id="Layer_x0020_1">
  <metadata id="CorelCorpID_0Corel-Layer"/>
  <path class="fil0" d="M441.8 10.19l0 0c245.65,0 444.87,199.22 444.87,444.87l0 0c0,245.65 -199.22,444.87 -444.87,444.87l0 0c-245.65,0 -444.87,-199.22 -444.87,-444.87l-0.01 0c0.01,-245.65 199.23,-444.87 444.88,-444.87z"/>
  <path class="fil1" d="M485.71 279.55c-10.45,19.38 -29.55,33.75 -50.66,41.98 -21.22,8.49 -44.97,9.83 -67.14,8.88 -22.27,-1.07 -43.94,-4.1 -64.74,-4.52 -20.65,-0.52 -40.8,1.41 -54.42,10.92 -6.79,4.69 -12.23,10.93 -16.3,18.75 -4.09,7.7 -7.41,16.9 -8.75,25.28 -1.42,8.57 -1.06,17.17 0.7,25.87 1.85,8.71 5.22,17.48 9.56,26.22 17.56,35.28 48.14,68.18 68.12,111.38 4.91,10.84 8.99,22.43 11.65,34.61l1.7 9.22c0.44,3.12 0.73,6.25 1.08,9.39 0.47,5.8 0.79,11.21 1.06,16.83 0.99,22.25 0.83,44.47 0.73,65.84 -0.01,10.61 0.03,21.19 1.09,30.34 0.5,4.52 1.38,8.71 2.37,11.44 0.53,1.27 1,2.32 1.35,2.79 0.41,0.45 0.45,0.8 0.89,0.99 0.39,0.26 1.05,0.64 2.33,0.86 0.62,0.44 4.65,0.1 1.09,0.64 -1.31,0.46 -0.5,0.5 0.59,-0.5 1.1,-0.88 2.47,-2.2 3.91,-3.8 5.81,-6.49 11.59,-15.43 17.03,-24.3 10.98,-18.01 21.1,-37.33 32.19,-56.19 11.12,-18.88 22.52,-37.83 35.81,-55.83 6.75,-8.93 13.97,-17.62 22.13,-25.65 8.19,-7.91 17.36,-15.52 28.69,-19.92 5.62,-2.17 11.79,-3.42 17.92,-3.1 6.12,0.28 12.03,2.14 17.08,5.03 10.08,5.96 17.24,14.73 23.07,23.89 -7.54,-7.8 -15.93,-15.09 -25.58,-18.6 -9.55,-3.76 -19.61,-2.43 -27.97,2.51 -8.39,4.91 -15.67,12.22 -22.09,20.26 -6.43,8.1 -12.12,16.95 -17.41,26.09 -10.73,18.2 -20.08,37.5 -29.13,57.05 -9.1,19.61 -18.16,39.27 -28.33,59.21 -5.27,9.98 -10.47,19.9 -18.4,30.28 -2,2.61 -4.36,5.24 -7.34,7.95 -2.95,2.6 -6.79,5.72 -13.32,7.72 -1.47,0.52 -3.53,0.8 -5.43,0.97l-1.44 0.1 -0.77 -0.01 -1.45 -0.03c-1.91,-0.01 -3.89,-0.14 -6.01,-0.45 -4.1,-0.51 -8.71,-1.78 -13.13,-4.02 -4.5,-2.16 -8.5,-5.63 -11.64,-9.24 -3.15,-3.7 -5.19,-7.52 -6.89,-11.2 -3.16,-7.32 -4.38,-13.88 -5.4,-20.08 -1.84,-12.39 -2.15,-23.56 -2.57,-34.65 -0.63,-22.03 -0.75,-43.24 -2.19,-64.34 -0.34,-5.22 -0.66,-10.65 -1.13,-15.65l-0.83 -6.79 -1.29 -6.77c-2.03,-9.04 -5.25,-18.03 -9.33,-26.94 -8.03,-17.93 -19.45,-35.37 -31.37,-53.35 -11.76,-18.11 -24.65,-36.61 -34.61,-58.39 -4.93,-10.88 -9.1,-22.64 -11.32,-35.3 -2.21,-12.63 -2,-26.11 0.78,-38.84 2.92,-12.88 7.53,-24.22 14.34,-35.28 6.75,-11.01 16.58,-21.07 28.29,-27.86 11.73,-6.76 24.65,-10.14 36.81,-11.26 12.25,-1.24 23.98,-0.62 35.29,0.74 22.6,2.73 43.79,7.69 64.81,10.89 20.92,3.56 41.68,4.53 62.07,-0.25 10.14,-2.33 20.02,-6.1 29.19,-11.4 9.22,-5.2 17.79,-11.94 24.66,-20.41z"/>
  <path class="fil2" d="M482.94 238.11c-20.77,15.4 -43.12,28.8 -67.18,39.43 -12.04,5.31 -24.64,9.69 -38.09,12.27 -13.32,2.37 -28.24,3.39 -43.07,-2.99 -3.69,-1.66 -7.07,-3.75 -10.17,-6.18 -3.15,-2.47 -6.24,-5.48 -8.77,-9.3 -2.54,-3.8 -4.42,-8.49 -5.02,-13.37 -0.65,-4.88 -0.01,-9.72 1.26,-13.96 2.6,-8.54 7.21,-15.07 12.03,-20.74 4.87,-5.69 10.2,-10.45 15.69,-14.86 11,-8.78 22.83,-15.73 34.95,-21.81 12.11,-6.09 24.57,-11.27 37.24,-15.77 25.34,-8.98 51.62,-15.2 78.45,-18.39 6.7,-0.81 13.44,-1.43 20.2,-1.87 3.38,-0.23 6.77,-0.38 10.16,-0.49l5.1 -0.11 5.55 0.05c14.84,0.4 29.99,3.39 44.05,9.26 14.11,5.8 26.88,14.51 37.67,24.77 10.83,10.27 19.74,22.07 26.98,34.51 14.39,24.99 22.44,52.23 26.65,79.47 7.85,54.67 0.67,110.1 -18.56,160.99 -2.41,6.36 -5.07,12.63 -7.87,18.83 -2.99,6.47 -5.41,11.49 -7.94,17.26 -4.87,11.29 -9.39,22.77 -13.33,34.49 -7.83,23.46 -13.92,47.68 -18.58,72.38 -4.77,24.72 -7.61,49.9 -11.16,75.54 -1.84,12.84 -3.6,25.78 -6.85,39.22 -1.74,6.73 -3.63,13.61 -7.67,20.85 -2.06,3.58 -4.82,7.36 -8.9,10.48 -4.09,3.11 -9.59,5.01 -14.41,5.03 -9.07,0.23 -17.21,-3.12 -23.52,-7.65 -6.32,-4.57 -11.06,-10.06 -15.16,-15.63 -8.06,-11.24 -13.9,-23.02 -19.33,-34.83 -5.43,-11.77 -10.48,-23.55 -16.33,-34.85 -2.88,-5.67 -5.98,-11.22 -9.65,-16.39 -3.7,-5.11 -7.92,-9.97 -13.49,-13.31 6.07,2.34 11.3,6.67 15.81,11.38 4.56,4.75 8.56,9.98 12.33,15.3 7.46,10.73 13.98,21.95 20.77,32.81 6.83,10.79 13.57,21.61 21.57,30.51 3.98,4.41 8.3,8.29 12.77,10.82 4.39,2.52 9.08,3.51 12.93,2.93 1.64,-0.26 2.4,-0.84 3.39,-1.66 0.94,-0.94 2.01,-2.48 2.97,-4.57 1.94,-4.19 3.23,-9.92 4.18,-15.72 1.86,-11.79 2.59,-24.5 3.36,-37.22 1.39,-25.54 3.25,-51.63 6.56,-77.71 3.27,-26.1 8.27,-52.26 15.84,-77.9 3.74,-12.82 8.06,-25.52 13.07,-37.98 2.44,-6.11 5.41,-12.76 7.64,-18.04 2.32,-5.6 4.54,-11.23 6.5,-16.97 7.98,-22.88 13.49,-46.67 15.94,-70.75 2.57,-24.03 2.37,-48.37 -1.21,-71.94 -3.44,-23.52 -10.35,-46.45 -21.51,-66.21 -10.96,-19.85 -26.75,-35.98 -45.98,-44.57 -9.6,-4.34 -20.07,-6.8 -30.96,-7.44l-4.11 -0.17 -4.57 -0.03 -9.14 0.11c-6.11,0.13 -12.22,0.43 -18.34,0.92 -24.44,2.03 -48.89,6.36 -72.6,13.14 -23.59,6.83 -46.78,16.27 -66.47,29.18 -4.84,3.26 -9.44,6.78 -13.28,10.58 -3.86,3.76 -6.99,7.91 -8.47,11.61 -1.47,3.79 -1.46,6.41 0.19,9.73 1.61,3.21 5.87,7.07 9.92,9.48 8.59,5.02 20.7,6.12 32.67,5.1 12.09,-1.03 24.34,-3.99 36.46,-7.53 12.13,-3.61 24.1,-8.14 35.89,-13.15 11.85,-4.92 23.47,-10.44 34.95,-16.37z"/>
 </g>
</svg>
